<?xml version="1.0" encoding="UTF-8" standalone="no"?>
<!DOCTYPE svg PUBLIC "-//W3C//DTD SVG 20010904//EN"
              "http://www.w3.org/TR/2001/REC-SVG-20010904/DTD/svg10.dtd">

<svg xmlns="http://www.w3.org/2000/svg"
     width="11.9639mm" height="11.9639mm"
     viewBox="0 0 65 65">
  <path id="Zaznaczenie #2"
        fill="none" stroke="black" stroke-width="1"
        d="M 0.00,0.00
           C 0.00,0.00 65.00,0.00 65.00,0.00
             65.00,0.00 65.00,44.00 65.00,44.00
             65.00,44.00 1.00,44.00 1.00,44.00
             1.00,44.00 1.00,59.00 1.00,59.00
             1.00,59.00 65.00,59.00 65.00,59.00
             65.00,59.00 65.00,65.00 65.00,65.00
             65.00,65.00 0.00,65.00 0.00,65.00
             0.00,65.00 0.00,0.00 0.00,0.00 Z" />
  <path id="Zaznaczenie #1"
        fill="none" stroke="black" stroke-width="1"
        d="M 0.00,0.00
           C 0.00,0.00 65.00,0.00 65.00,0.00
             65.00,0.00 65.00,26.00 65.00,26.00
             65.00,26.00 21.00,26.00 21.00,26.00
             21.00,26.00 21.00,41.00 21.00,41.00
             21.00,41.00 65.00,41.00 65.00,41.00
             65.00,41.00 65.00,65.00 65.00,65.00
             65.00,65.00 0.00,65.00 0.00,65.00
             0.00,65.00 0.00,0.00 0.00,0.00 Z" />
  <path id="Zaznaczenie"
        fill="none" stroke="black" stroke-width="1"
        d="M 0.00,0.00
           C 0.00,0.00 65.00,0.00 65.00,0.00
             65.00,0.00 65.00,65.00 65.00,65.00
             65.00,65.00 0.00,65.00 0.00,65.00
             0.00,65.00 0.00,23.00 0.00,23.00
             0.00,23.00 56.00,23.00 56.00,23.00
             56.00,23.00 56.00,15.00 56.00,15.00
             55.88,8.46 54.54,7.12 48.00,7.00
             48.00,7.00 0.00,7.00 0.00,7.00
             0.00,7.00 0.00,0.00 0.00,0.00 Z" />
</svg>
