<?xml version="1.0" encoding="UTF-8" standalone="no"?>
<!DOCTYPE svg PUBLIC "-//W3C//DTD SVG 20010904//EN"
              "http://www.w3.org/TR/2001/REC-SVG-20010904/DTD/svg10.dtd">

<svg xmlns="http://www.w3.org/2000/svg"
     width="0.42in" height="0.226667in"
     viewBox="0 0 126 68">
  <path id="Revers"
        fill="none" stroke="black" stroke-width="1"
        d="M 11.00,7.00
           C 11.00,7.00 78.00,7.00 78.00,7.00
             78.00,7.00 78.00,23.00 78.00,23.00
             78.00,23.00 11.00,23.00 11.00,23.00
             11.00,23.00 11.00,7.00 11.00,7.00 Z
           M 43.00,25.00
           C 43.00,25.00 110.00,25.00 110.00,25.00
             110.00,25.00 110.00,42.00 110.00,42.00
             110.00,42.00 43.00,42.00 43.00,42.00
             43.00,42.00 43.00,25.00 43.00,25.00 Z
           M 23.00,44.00
           C 23.00,44.00 90.00,44.00 90.00,44.00
             90.00,44.00 90.00,60.00 90.00,60.00
             90.00,60.00 23.00,60.00 23.00,60.00
             23.00,60.00 23.00,44.00 23.00,44.00 Z" />
  <path id="All"
        fill="none" stroke="black" stroke-width="1"
        d="M 0.00,0.00
           C 0.00,0.00 126.00,0.00 126.00,0.00
             126.00,0.00 126.00,68.00 126.00,68.00
             126.00,68.00 0.00,68.00 0.00,68.00
             0.00,68.00 0.00,0.00 0.00,0.00 Z
           M 78.00,7.00
           C 78.00,7.00 11.00,7.00 11.00,7.00
             11.00,7.00 11.00,23.00 11.00,23.00
             11.00,23.00 78.00,23.00 78.00,23.00
             78.00,23.00 78.00,7.00 78.00,7.00 Z
           M 110.00,25.00
           C 110.00,25.00 43.00,25.00 43.00,25.00
             43.00,25.00 43.00,42.00 43.00,42.00
             43.00,42.00 110.00,42.00 110.00,42.00
             110.00,42.00 110.00,25.00 110.00,25.00 Z
           M 90.00,44.00
           C 90.00,44.00 23.00,44.00 23.00,44.00
             23.00,44.00 23.00,60.00 23.00,60.00
             23.00,60.00 90.00,60.00 90.00,60.00
             90.00,60.00 90.00,44.00 90.00,44.00 Z" />
  <path id="Dolna"
        fill="none" stroke="black" stroke-width="1"
        d="M 23.00,44.00
           C 23.00,44.00 90.00,44.00 90.00,44.00
             90.00,44.00 90.00,59.00 90.00,59.00
             90.00,59.00 23.00,59.00 23.00,59.00
             23.00,59.00 23.00,44.00 23.00,44.00 Z" />
  <path id="Srodkowa"
        fill="none" stroke="black" stroke-width="1"
        d="M 43.00,26.00
           C 43.00,26.00 109.00,26.00 109.00,26.00
             109.00,26.00 109.00,41.00 109.00,41.00
             109.00,41.00 43.00,41.00 43.00,41.00
             43.00,41.00 43.00,26.00 43.00,26.00 Z" />
  <path id="Gorna"
        fill="none" stroke="black" stroke-width="1"
        d="M 11.00,7.00
           C 11.00,7.00 62.00,7.00 62.00,7.00
             76.00,7.00 77.84,5.79 78.00,14.00
             78.00,14.00 78.00,23.00 78.00,23.00
             78.00,23.00 11.00,23.00 11.00,23.00
             11.00,23.00 11.00,7.00 11.00,7.00 Z" />
</svg>
